<?xml version="1.0" encoding="utf-8"?>
<!-- Generator: Adobe Illustrator 22.0.1, SVG Export Plug-In . SVG Version: 6.00 Build 0)  -->
<svg version="1.1" id="Layer_1" xmlns="http://www.w3.org/2000/svg" xmlns:xlink="http://www.w3.org/1999/xlink" x="0px" y="0px"
	 viewBox="0 0 52 72" style="enable-background:new 0 0 52 72;" xml:space="preserve">
<style type="text/css">
	.st0{clip-path:url(#SVGID_2_);}
	.st1{display:none;opacity:0.5;fill:#FFFFFF;enable-background:new    ;}
</style>
<g>
	<defs>
		<rect id="SVGID_1_" width="52" height="72"/>
	</defs>
	<clipPath id="SVGID_2_">
		<use xlink:href="#SVGID_1_"  style="overflow:visible;"/>
	</clipPath>
	<g class="st0">
		<path class="st1" d="M52,0H0v72h52V0z"/>
		<path d="M47.1,46.1l4.6-4.6c0.2-0.2,0.2-0.6,0-0.9L11.3,0.2c-0.2-0.2-0.6-0.2-0.9,0L0.3,10.3c-0.2,0.2-0.2,0.6,0,0.9L15,25.9
			L0.3,40.6c-0.2,0.2-0.2,0.6,0,0.9l4.6,4.6l-4.6,4.6C0,51,0,51.4,0.3,51.6l20.2,20.2c0.2,0.2,0.6,0.2,0.9,0l4.6-4.6l4.6,4.6
			c0.1,0.1,0.3,0.2,0.4,0.2c0.2,0,0.3-0.1,0.4-0.2l20.2-20.2c0.2-0.2,0.2-0.6,0-0.9L47.1,46.1z M26,63.8l-5.2-21l10.5-20.9l4.2,4.2
			L26,63.8z M20.3,41l-1.7-6.8L28.8,24L20.3,41z M1.6,10.7l9.2-9.2l19.3,19.3L18.2,32.8l-1.8-7c0,0,0,0,0,0c0,0,0,0,0,0
			c0,0,0-0.1,0-0.1c0,0,0,0,0,0c0,0,0-0.1-0.1-0.1c0,0,0,0,0,0c0,0,0,0,0,0L1.6,10.7z M1.6,41l14-13.9l1.7,6.7L5.8,45.2L1.6,41z
			 M6.2,46.5l11.4-11.4l1.9,7.5l-8.8,17.6l-9.1-9.1L6.2,46.5z M20.9,70.5l-9.4-9.3l8.3-16.6l5.4,21.6L20.9,70.5z M31,70.5l-4.4-4.4
			l9.8-39l14,13.9l-4.6,4.6c-0.2,0.2-0.2,0.6,0,0.9l4.6,4.6L31,70.5z M50.8,21.3c0.1,0.1,0.3,0.2,0.4,0.2c0.1,0,0.2,0,0.2-0.1
			c0.2-0.1,0.4-0.3,0.4-0.6V0.6c0-0.3-0.3-0.6-0.6-0.6H31c-0.2,0-0.5,0.2-0.6,0.4c-0.1,0.2,0,0.5,0.1,0.7L50.8,21.3z M50.6,12
			L47.1,1.2h3.6L50.6,12L50.6,12z M45.8,1.2l4.1,12.2L37.6,1.2H45.8z M35.8,1.2L50.6,16v3.3L32.5,1.2H35.8z M26.2,11
			c0-0.1-0.1-0.2-0.1-0.2c0-0.1,0-0.2,0.1-0.2c0-0.1,0.1-0.1,0.1-0.2l0,0c0,0,0,0,0,0l4.1-4.1c0.2-0.2,0.6-0.2,0.9,0l4.1,4.1
			c0,0,0,0,0,0c0,0,0,0,0,0c0,0,0.1,0.1,0.1,0.2c0,0.1,0,0.2,0,0.2c0,0.1,0,0.2,0,0.2c0,0.1-0.1,0.1-0.1,0.2l0,0c0,0,0,0,0,0
			l-4.1,4.1c-0.1,0.1-0.3,0.2-0.4,0.2s-0.3-0.1-0.4-0.2l-4.1-4.1c0,0,0,0,0,0c0,0,0,0,0,0C26.2,11.1,26.2,11,26.2,11z M28.2,11.3
			l2.6,2.6l2.6-2.6H28.2z M33.5,10.1l-2.6-2.6l-2.6,2.6H33.5z"/>
	</g>
</g>
</svg>
